<svg width="316" height="240" viewBox="0 0 316 240" fill="none" xmlns="http://www.w3.org/2000/svg">
<path d="M175.671 313.807V271.046H224.154C232.385 271.046 238.508 268.938 242.523 264.722C246.538 260.506 248.546 254.383 248.546 246.352C248.546 238.322 246.538 232.299 242.523 228.284C238.508 224.068 232.385 221.96 224.154 221.96H175.671V188.836H222.347C237.805 188.836 251.657 190.743 263.904 194.557C276.15 198.171 285.786 204.193 292.813 212.625C299.839 221.057 303.352 232.299 303.352 246.352V250.568C303.352 263.818 300.241 275.161 294.017 284.597C287.794 294.032 278.659 301.259 266.614 306.278C254.568 311.297 239.813 313.807 222.347 313.807H175.671ZM127.489 313.807V90.3642H181.694V313.807H127.489ZM175.671 213.529V180.404H216.023C224.254 180.404 230.176 178.396 233.79 174.381C237.604 170.165 239.512 164.343 239.512 156.915C239.512 149.286 237.604 143.464 233.79 139.449C230.176 135.233 224.254 133.125 216.023 133.125H175.671V90.3642H213.614C239.311 90.3642 259.186 95.7846 273.239 106.626C287.292 117.266 294.318 132.523 294.318 152.398V156.915C294.318 170.767 290.705 181.909 283.477 190.341C276.451 198.572 266.815 204.495 254.568 208.108C242.523 211.722 228.871 213.529 213.614 213.529H175.671Z" fill="url(#paint0_linear_333_5686)"/>
<rect x="93.2846" y="79.6752" width="15.0568" height="15.0568" fill="#3E3E3E" stroke="#3E3E3E" stroke-width="1.25473"/>
<rect x="300.316" y="79.6752" width="15.0568" height="15.0568" fill="#3E3E3E" stroke="#3E3E3E" stroke-width="1.25473"/>
<path d="M101.44 87.8311L313.49 87.8311" stroke="#3E3E3E" stroke-width="1.25473"/>
<path d="M101.44 87.8311L101.44 299.881" stroke="#3E3E3E" stroke-width="1.25473"/>
<path d="M308.472 87.8311L308.472 299.881" stroke="#3E3E3E" stroke-width="1.25473"/>
<rect y="167.979" width="71.1525" height="79.9548" fill="#141414"/>
<defs>
<linearGradient id="paint0_linear_333_5686" x1="105.205" y1="0" x2="211.313" y2="418.719" gradientUnits="userSpaceOnUse">
<stop stop-color="#9F9F9F"/>
<stop offset="1" stop-color="#010314"/>
</linearGradient>
</defs>
</svg>
