<svg width="15" height="15" viewBox="0 0 15 15" fill="none" xmlns="http://www.w3.org/2000/svg">
<path d="M8.70511 1.21117L9.97392 3.76978C10.147 4.12595 10.6083 4.46758 10.9977 4.533L13.2974 4.91824C14.7681 5.16539 15.1141 6.24117 14.0543 7.30241L12.2665 9.10505C11.9637 9.41032 11.7979 9.99909 11.8916 10.4207L12.4035 12.6522C12.8072 14.4185 11.8771 15.1018 10.3272 14.1787L8.17164 12.8921C7.78237 12.6595 7.14075 12.6595 6.7442 12.8921L4.58868 14.1787C3.04591 15.1018 2.10872 14.4113 2.51243 12.6522L3.02429 10.4207C3.118 9.99909 2.95219 9.41032 2.6494 9.10505L0.861525 7.30241C-0.19102 6.24117 0.147814 5.16539 1.61849 4.91824L3.91822 4.533C4.30031 4.46758 4.7617 4.12595 4.93472 3.76978L6.20353 1.21117C6.89561 -0.177162 8.02023 -0.177162 8.70511 1.21117Z" fill="#3F98A7"/>
</svg>
